<svg xmlns="http://www.w3.org/2000/svg" width="634" height="633" class="w-full h-full"><defs><linearGradient id="b" x1="50%" x2="50%" y1="0%" y2="71.65%"><stop offset="0%" stop-color="#6BDAFF"/><stop offset="31.922%" stop-color="#F9FFB5"/><stop offset="70.627%" stop-color="#FFA770"/><stop offset="100%" stop-color="#FF7373"/></linearGradient><linearGradient id="d" x1="92.9%" x2="8.641%" y1="45.821%" y2="54.832%"><stop offset="0%" stop-color="#EE2700"/><stop offset="100%" stop-color="#FF008E"/></linearGradient><linearGradient id="e" x1="50%" x2="50%" y1="0%" y2="100%"><stop offset="0%" stop-color="#A17500"/><stop offset="100%" stop-color="#5D2100"/></linearGradient><linearGradient id="f" x1="50%" x2="50%" y1="0%" y2="100%"><stop offset="0%" stop-color="#2F8A00"/><stop offset="100%" stop-color="#90FF57"/></linearGradient><linearGradient id="g" x1="50%" x2="50%" y1="0%" y2="100%"><stop offset="0%" stop-color="#2F8A00"/><stop offset="100%" stop-color="#90FF57"/></linearGradient><linearGradient id="h" x1="50%" x2="50%" y1="0%" y2="100%"><stop offset="0%" stop-color="#2F8A00"/><stop offset="100%" stop-color="#90FF57"/></linearGradient><linearGradient id="i" x1="50%" x2="50%" y1="0%" y2="100%"><stop offset="0%" stop-color="#2F8A00"/><stop offset="100%" stop-color="#90FF57"/></linearGradient><linearGradient id="j" x1="50%" x2="50%" y1="0%" y2="100%"><stop offset="0%" stop-color="#2F8A00"/><stop offset="100%" stop-color="#90FF57"/></linearGradient><linearGradient id="k" x1="50%" x2="50%" y1="0%" y2="100%"><stop offset="0%" stop-color="#2F8A00"/><stop offset="100%" stop-color="#90FF57"/></linearGradient><linearGradient id="l" x1="61.109%" x2="43.717%" y1="3.633%" y2="43.072%"><stop offset="0%" stop-color="#FFF400"/><stop offset="100%" stop-color="#3C8700"/></linearGradient><linearGradient id="m" x1="50%" x2="50%" y1="0%" y2="100%"><stop offset="0%" stop-color="#FFDF00"/><stop offset="100%" stop-color="#FF9D00"/></linearGradient><linearGradient id="n" x1="127.279%" x2="0%" y1="49.778%" y2="50.222%"><stop offset="0%" stop-color="#FFA400"/><stop offset="100%" stop-color="#FF5E00"/></linearGradient><linearGradient id="o" x1="127.279%" x2="0%" y1="47.531%" y2="52.469%"><stop offset="0%" stop-color="#FFA400"/><stop offset="100%" stop-color="#FF5E00"/></linearGradient><linearGradient id="p" x1="127.279%" x2="0%" y1="46.195%" y2="53.805%"><stop offset="0%" stop-color="#FFA400"/><stop offset="100%" stop-color="#FF5E00"/></linearGradient><linearGradient id="q" x1="127.279%" x2="0%" y1="35.33%" y2="64.67%"><stop offset="0%" stop-color="#FFA400"/><stop offset="100%" stop-color="#FF5E00"/></linearGradient><linearGradient id="r" x1="127.279%" x2="0%" y1="4.875%" y2="95.125%"><stop offset="0%" stop-color="#FFA400"/><stop offset="100%" stop-color="#FF5E00"/></linearGradient><linearGradient id="s" x1="78.334%" x2="31.668%" y1="0%" y2="100%"><stop offset="0%" stop-color="#FFA400"/><stop offset="100%" stop-color="#FF5E00"/></linearGradient><linearGradient id="t" x1="57.913%" x2="44.88%" y1="0%" y2="100%"><stop offset="0%" stop-color="#FFA400"/><stop offset="100%" stop-color="#FF5E00"/></linearGradient><linearGradient id="u" x1="50.495%" x2="49.68%" y1="0%" y2="100%"><stop offset="0%" stop-color="#FFA400"/><stop offset="100%" stop-color="#FF5E00"/></linearGradient><circle id="a" cx="316.5" cy="316.5" r="316.5"/><circle id="v" cx="315.5" cy="316.5" r="316.5"/></defs><g fill="none" fill-rule="evenodd" transform="translate(1)"><mask id="c" fill="#fff"><use href="#a"/></mask><use fill="url(#b)" href="#a"/><ellipse cx="89.5" cy="610.5" fill="#015064" stroke="#00CFE2" stroke-width="25" mask="url(#c)" rx="214.5" ry="185.968"/><ellipse cx="543.5" cy="610.5" fill="#015064" stroke="#00CFE2" stroke-width="25" mask="url(#c)" rx="214.5" ry="185.968"/><ellipse cx="89.5" cy="648.5" fill="#015064" stroke="#00A8B8" stroke-width="25" mask="url(#c)" rx="214.5" ry="185.968"/><ellipse cx="543.5" cy="648.5" fill="#015064" stroke="#00A8B8" stroke-width="25" mask="url(#c)" rx="214.5" ry="185.968"/><ellipse cx="89.5" cy="684.5" fill="#015064" stroke="#007782" stroke-width="25" mask="url(#c)" rx="214.5" ry="185.968"/><ellipse cx="543.5" cy="684.5" fill="#015064" stroke="#007782" stroke-width="25" mask="url(#c)" rx="214.5" ry="185.968"/><g mask="url(#c)"><path stroke="#000" stroke-linecap="round" stroke-linejoin="bevel" stroke-width="11" d="m436.018 403.22-5.036 28.56M290.97 341.479l-10.94 62.043M332.939 384.125l-4.335 27.08"/><path fill="url(#d)" d="M108.27 43.724H9.1C3.033 44.814 0 48.369 0 54.388S3.033 64.278 9.1 66h107.606l66.885-48.33c3.985-4.214 4.476-8.463 1.473-12.747C182.062.638 177.695-.85 171.965.459l-63.694 43.265Z" transform="scale(-1 1) rotate(-10 1706.738 2788.622)"/><path fill="#D8D8D8" stroke="#FFF" stroke-linecap="round" stroke-linejoin="bevel" stroke-width="7" d="m428.252 384.46.863-6.493M395.252 379.46l.863-6.494M362.247 373.522l.878-6.109M324.238 351.286l4.166-3.901M303.238 331.286l4.166-3.9"/></g><g mask="url(#c)"><path fill="url(#e)" d="M104.59 87.14c9.088 37.042 19.697 72.314 31.826 105.816 12.129 33.503 30.425 68.775 54.888 105.817l-62.34 11.865c-11.84-59.919-20.302-99.02-25.384-117.302-5.082-18.283-12.992-51.348-23.73-99.194l24.74-7.002" transform="scale(-1 1) rotate(26 -294.784 -497.964)"/><g stroke="#2F8A00"><path fill="url(#f)" stroke-width="13" d="M110.146 66.916s-13.74-21.426-37.97-27.943c-16.152-4.345-34.433.312-54.845 13.971C33.957 66.35 47.936 73.937 59.267 75.707c16.996 2.654 50.879-8.79 50.879-8.79Z" transform="rotate(3 -2081.125 1745.042)"/><path fill="url(#g)" stroke-width="13" d="M110.146 67.52s-47.883-6.032-82.274 20.048C4.945 104.955-3.838 138.577 1.524 188.434c28.84-29.387 49.478-51.125 61.916-65.215 18.658-21.135 46.706-55.7 46.706-55.7Z" transform="rotate(3 -2081.125 1745.042)"/><path fill="url(#h)" stroke-width="13" d="M110.146 66.916c-1.99-21.828 4.037-38.234 18.082-49.219C142.272 6.713 157.135.814 172.818 0c-4.938 21.649-12.557 36.52-22.858 44.613-10.3 8.093-23.572 15.528-39.814 22.303Z" transform="rotate(3 -2081.125 1745.042)"/><path fill="url(#i)" stroke-width="13" d="M110.146 67.52c30.278-31.666 61.962-43.02 95.05-34.062 33.089 8.958 52.297 27.672 57.625 56.144-35.412-3.678-60.858-6.379-76.338-8.104-15.479-1.725-40.925-6.385-76.337-13.978Z" transform="rotate(3 -2081.125 1745.042)"/><path fill="url(#j)" stroke-width="13" d="M110.146 67.52c35.382-9.435 65.455-3.68 90.216 17.267 24.762 20.947 40.241 46.95 46.438 78.012-40.211-7.617-69.41-20.23-87.596-37.838a398.222 398.222 0 0 1-49.058-57.441Z" transform="rotate(3 -2081.125 1745.042)"/><path fill="url(#k)" stroke-width="13" d="M110.146 67.52c-32.816 15.549-51.688 38.444-56.618 68.685s-.296 63.248 13.9 99.022c25.24-41.654 39.48-71.774 42.718-90.36 3.238-18.586 3.238-44.368 0-77.347Z" transform="rotate(3 -2081.125 1745.042)"/><path stroke-linecap="round" stroke-width="8" d="M196.456 182.301c-14.814 21.61-25.087 41.407-30.82 59.39-5.731 17.984-9.448 33.021-11.148 45.11"/><path stroke-linecap="round" stroke-width="8" d="M194.847 185.673c-24.41 1.725-43.762 9-58.055 21.827-14.294 12.827-24.728 25.434-31.304 37.82M204.543 176.367c29.708-6.73 52.048-8.411 67.019-5.047 14.97 3.365 26.918 8.651 35.842 15.858M196.514 181.438c20.259 9.875 38.228 20.514 53.908 31.917 15.68 11.403 27.373 22.083 35.078 32.04"/></g></g><ellipse cx="316.5" cy="715.5" fill="url(#l)" mask="url(#c)" rx="266" ry="316.5"/><g mask="url(#c)"><g transform="translate(397 -24)"><circle cx="168.5" cy="113.5" r="113.5" fill="url(#m)"/><path stroke="url(#n)" stroke-linecap="round" stroke-linejoin="bevel" stroke-width="12" d="M30 113H0"/><path stroke="url(#o)" stroke-linecap="round" stroke-linejoin="bevel" stroke-width="12" d="M33.5 79.5 7 74"/><path stroke="url(#p)" stroke-linecap="round" stroke-linejoin="bevel" stroke-width="12" d="m34 146-29 8"/><path stroke="url(#q)" stroke-linecap="round" stroke-linejoin="bevel" stroke-width="12" d="m45 177-24 13"/><path stroke="url(#r)" stroke-linecap="round" stroke-linejoin="bevel" stroke-width="12" d="m67 204-20 19"/><path stroke="url(#s)" stroke-linecap="round" stroke-linejoin="bevel" stroke-width="12" d="m94.373 227-13.834 22.847"/><path stroke="url(#t)" stroke-linecap="round" stroke-linejoin="bevel" stroke-width="12" d="M127.5 243.5 120 268"/><path stroke="url(#u)" stroke-linecap="round" stroke-linejoin="bevel" stroke-width="12" d="m167.5 252.5.5 24.5"/></g></g><circle cx="315.5" cy="316.5" r="304" stroke="#000" stroke-width="25"/></g></svg>